<svg xmlns="http://www.w3.org/2000/svg" xmlns:xlink="http://www.w3.org/1999/xlink" width="88" height="90" viewBox="0 0 88 90"><defs><path id="75sta" d="M950.973 5891.33c15.773 0 28.644 12.818 28.644 28.643 0 15.825-12.819 28.644-28.644 28.644-15.772 0-28.643-12.819-28.643-28.644 0-15.825 12.818-28.643 28.643-28.643zm0 63.617a34.8 34.8 0 0 0 20.942-6.963l26.006 26.005c.633.633 1.424.95 2.215.95.792 0 1.636-.317 2.216-.95 1.213-1.213 1.213-3.217 0-4.483l-25.742-25.795c5.75-6.225 9.337-14.56 9.337-23.738 0-19.254-15.667-34.973-34.974-34.973-19.306 0-34.973 15.72-34.973 34.973 0 19.254 15.667 34.974 34.973 34.974z"/><path id="75stb" d="M938.102 5923.033h10.023v10.022a3.174 3.174 0 0 0 3.165 3.165 3.174 3.174 0 0 0 3.165-3.165v-10.022h10.022a3.174 3.174 0 0 0 3.165-3.165 3.174 3.174 0 0 0-3.165-3.165h-10.022v-10.023a3.174 3.174 0 0 0-3.165-3.165 3.174 3.174 0 0 0-3.165 3.165v10.023h-10.023a3.174 3.174 0 0 0-3.165 3.165 3.174 3.174 0 0 0 3.165 3.165z"/></defs><g><g transform="translate(-916 -5885)"><use fill="#fff" xlink:href="#75sta"/></g><g transform="translate(-916 -5885)"><use fill="#fff" xlink:href="#75stb"/></g></g></svg>